<svg xmlns="http://www.w3.org/2000/svg" xmlns:xlink="http://www.w3.org/1999/xlink" width="500" zoomAndPan="magnify" viewBox="0 0 375 374.999991" height="500" preserveAspectRatio="xMidYMid meet" version="1.0"><defs><g/><clipPath id="1f23d9b428"><path d="M 96.523438 96.523438 L 278.476562 96.523438 L 278.476562 278.476562 L 96.523438 278.476562 Z M 96.523438 96.523438 " clip-rule="nonzero"/></clipPath><clipPath id="88ce7edc70"><path d="M 187.5 96.523438 C 137.253906 96.523438 96.523438 137.253906 96.523438 187.5 C 96.523438 237.746094 137.253906 278.476562 187.5 278.476562 C 237.746094 278.476562 278.476562 237.746094 278.476562 187.5 C 278.476562 137.253906 237.746094 96.523438 187.5 96.523438 Z M 187.5 96.523438 " clip-rule="nonzero"/></clipPath><clipPath id="481f86d6a8"><path d="M 0.523438 0.523438 L 182.476562 0.523438 L 182.476562 182.476562 L 0.523438 182.476562 Z M 0.523438 0.523438 " clip-rule="nonzero"/></clipPath><clipPath id="f10c708460"><path d="M 91.5 0.523438 C 41.253906 0.523438 0.523438 41.253906 0.523438 91.5 C 0.523438 141.746094 41.253906 182.476562 91.5 182.476562 C 141.746094 182.476562 182.476562 141.746094 182.476562 91.5 C 182.476562 41.253906 141.746094 0.523438 91.5 0.523438 Z M 91.5 0.523438 " clip-rule="nonzero"/></clipPath><clipPath id="a1eaae07e1"><rect x="0" width="183" y="0" height="183"/></clipPath><clipPath id="7f0e9f8e84"><path d="M 243 173 L 249 173 L 249 179 L 243 179 Z M 243 173 " clip-rule="nonzero"/></clipPath><clipPath id="3a19e030d9"><path d="M 245.527344 172.839844 L 249.640625 175.894531 L 246.644531 179.925781 L 242.53125 176.875 Z M 245.527344 172.839844 " clip-rule="nonzero"/></clipPath><clipPath id="d5aaa2439a"><path d="M 247.578125 174.363281 C 246.445312 173.519531 244.855469 173.742188 244.03125 174.855469 C 243.203125 175.96875 243.449219 177.554688 244.585938 178.398438 C 245.71875 179.238281 247.308594 179.019531 248.132812 177.902344 C 248.960938 176.789062 248.714844 175.203125 247.578125 174.363281 Z M 247.578125 174.363281 " clip-rule="nonzero"/></clipPath><clipPath id="11cb42c327"><path d="M 0.121094 0.519531 L 6 0.519531 L 6 6 L 0.121094 6 Z M 0.121094 0.519531 " clip-rule="nonzero"/></clipPath><clipPath id="3466c7397d"><path d="M 2.527344 -0.160156 L 6.640625 2.894531 L 3.644531 6.925781 L -0.46875 3.875 Z M 2.527344 -0.160156 " clip-rule="nonzero"/></clipPath><clipPath id="b7100722c1"><path d="M 4.578125 1.363281 C 3.445312 0.519531 1.855469 0.742188 1.03125 1.855469 C 0.203125 2.96875 0.449219 4.554688 1.585938 5.398438 C 2.71875 6.238281 4.308594 6.019531 5.132812 4.902344 C 5.960938 3.789062 5.714844 2.203125 4.578125 1.363281 Z M 4.578125 1.363281 " clip-rule="nonzero"/></clipPath><clipPath id="e0b0223f0e"><rect x="0" width="6" y="0" height="6"/></clipPath><clipPath id="80485ab029"><rect x="0" width="117" y="0" height="125"/></clipPath></defs><g clip-path="url(#1f23d9b428)"><g clip-path="url(#88ce7edc70)"><g transform="matrix(1, 0, 0, 1, 96, 96)"><g clip-path="url(#a1eaae07e1)"><g clip-path="url(#481f86d6a8)"><g clip-path="url(#f10c708460)"><path fill="#6e9579" d="M 0.523438 0.523438 L 182.476562 0.523438 L 182.476562 182.476562 L 0.523438 182.476562 Z M 0.523438 0.523438 " fill-opacity="1" fill-rule="nonzero"/></g></g></g></g></g></g><g clip-path="url(#7f0e9f8e84)"><g clip-path="url(#3a19e030d9)"><g clip-path="url(#d5aaa2439a)"><g transform="matrix(1, 0, 0, 1, 243, 173)"><g clip-path="url(#e0b0223f0e)"><g clip-path="url(#11cb42c327)"><g clip-path="url(#3466c7397d)"><g clip-path="url(#b7100722c1)"><path fill="#ffffff" d="M 2.527344 -0.160156 L 6.640625 2.890625 L 3.644531 6.925781 L -0.46875 3.875 Z M 2.527344 -0.160156 " fill-opacity="1" fill-rule="nonzero"/></g></g></g></g></g></g></g></g><g transform="matrix(1, 0, 0, 1, 129, 117)"><g clip-path="url(#80485ab029)"><g fill="#ffffff" fill-opacity="1"><g transform="translate(5.662152, 80.335407)"><g><path d="M 51.734375 -20.859375 C 52.085938 -20.503906 52.265625 -20.050781 52.265625 -19.5 C 52.265625 -18.945312 52.085938 -18.472656 51.734375 -18.078125 C 49.679688 -16.015625 47.222656 -14.015625 44.359375 -12.078125 C 41.492188 -10.148438 38.40625 -8.421875 35.09375 -6.890625 C 31.78125 -5.359375 28.414062 -4.140625 25 -3.234375 C 21.582031 -2.335938 18.296875 -1.890625 15.140625 -1.890625 C 13.835938 -1.890625 12.582031 -1.960938 11.375 -2.109375 C 8.863281 -2.304688 6.550781 -3.070312 4.4375 -4.40625 C 2.332031 -5.738281 0.648438 -7.484375 -0.609375 -9.640625 C -0.859375 -10.085938 -0.921875 -10.5625 -0.796875 -11.0625 C -0.671875 -11.570312 -0.378906 -11.976562 0.078125 -12.28125 C 0.523438 -12.582031 1.007812 -12.664062 1.53125 -12.53125 C 2.0625 -12.40625 2.476562 -12.117188 2.78125 -11.671875 C 3.882812 -10.210938 5.238281 -9.109375 6.84375 -8.359375 C 8.457031 -7.609375 10.140625 -7.242188 11.890625 -7.265625 C 13.648438 -7.296875 15.335938 -7.757812 16.953125 -8.65625 C 18.003906 -9.257812 18.628906 -10.140625 18.828125 -11.296875 C 19.078125 -12.503906 18.773438 -13.554688 17.921875 -14.453125 C 17.066406 -15.359375 16.113281 -16.140625 15.0625 -16.796875 C 12.957031 -18.046875 11.203125 -19.648438 9.796875 -21.609375 C 9.585938 -21.960938 9.285156 -22.164062 8.890625 -22.21875 C 8.484375 -22.269531 8.15625 -22.171875 7.90625 -21.921875 L 2.1875 -16.5 C 1.632812 -15.988281 0.976562 -15.835938 0.21875 -16.046875 C -0.53125 -16.242188 -0.976562 -16.71875 -1.125 -17.46875 C -1.332031 -18.226562 -1.132812 -18.882812 -0.53125 -19.4375 L 11 -30.28125 C 12.300781 -31.832031 13.78125 -33.210938 15.4375 -34.421875 C 15.84375 -34.722656 16.304688 -34.847656 16.828125 -34.796875 C 17.359375 -34.742188 17.800781 -34.515625 18.15625 -34.109375 C 18.5 -33.710938 18.644531 -33.25 18.59375 -32.71875 C 18.550781 -32.195312 18.351562 -31.757812 18 -31.40625 L 13.859375 -27.5625 C 13.203125 -26.8125 12.847656 -25.929688 12.796875 -24.921875 C 12.796875 -24.023438 13.285156 -23.171875 14.265625 -22.359375 C 15.242188 -21.554688 16.265625 -20.78125 17.328125 -20.03125 C 18.878906 -19.125 20.207031 -17.96875 21.3125 -16.5625 C 22.164062 -15.363281 22.65625 -14.019531 22.78125 -12.53125 C 22.90625 -11.050781 22.617188 -9.660156 21.921875 -8.359375 C 21.710938 -7.953125 21.757812 -7.578125 22.0625 -7.234375 C 22.3125 -6.878906 22.664062 -6.753906 23.125 -6.859375 C 32.957031 -9.210938 41.566406 -13.878906 48.953125 -20.859375 C 49.304688 -21.265625 49.757812 -21.46875 50.3125 -21.46875 C 50.863281 -21.46875 51.335938 -21.265625 51.734375 -20.859375 Z M 51.734375 -20.859375 "/></g></g></g><g fill="#ffffff" fill-opacity="1"><g transform="translate(54.313699, 80.335407)"><g><path d="M 59.421875 -18.078125 C 59.773438 -17.671875 59.9375 -17.191406 59.90625 -16.640625 C 59.882812 -16.085938 59.671875 -15.632812 59.265625 -15.28125 C 59.117188 -15.132812 58.414062 -14.554688 57.15625 -13.546875 C 55.90625 -12.546875 54.238281 -11.34375 52.15625 -9.9375 C 50.070312 -8.53125 47.75 -7.175781 45.1875 -5.875 C 42.625 -4.570312 39.945312 -3.566406 37.15625 -2.859375 C 34.375 -2.160156 31.679688 -2.007812 29.078125 -2.40625 C 26.765625 -2.8125 24.648438 -3.675781 22.734375 -5 C 20.828125 -6.332031 19.320312 -8.003906 18.21875 -10.015625 C 17.375 -11.566406 16.097656 -12.421875 14.390625 -12.578125 C 13.679688 -12.628906 12.660156 -12.390625 11.328125 -11.859375 C 10.003906 -11.335938 8.363281 -10.171875 6.40625 -8.359375 C 4.445312 -6.554688 2.1875 -3.796875 -0.375 -0.078125 C -0.925781 0.722656 -1.679688 0.953125 -2.640625 0.609375 C -3.585938 0.253906 -4.015625 -0.425781 -3.921875 -1.4375 C -3.765625 -3.34375 -3.484375 -5.550781 -3.078125 -8.0625 C -2.679688 -10.570312 -2.207031 -13.234375 -1.65625 -16.046875 C -2.15625 -16.796875 -2.128906 -17.546875 -1.578125 -18.296875 L -1.046875 -19.046875 C -0.453125 -22.109375 0.234375 -25.242188 1.015625 -28.453125 C 1.796875 -31.671875 2.640625 -34.789062 3.546875 -37.8125 C 4.953125 -42.875 6.253906 -47.035156 7.453125 -50.296875 C 8.660156 -53.566406 9.765625 -56.164062 10.765625 -58.09375 C 11.773438 -60.03125 12.664062 -61.460938 13.4375 -62.390625 C 14.21875 -63.328125 14.867188 -63.941406 15.390625 -64.234375 C 15.921875 -64.535156 16.335938 -64.738281 16.640625 -64.84375 C 17.492188 -65.09375 18.320312 -65.078125 19.125 -64.796875 C 19.925781 -64.523438 20.601562 -64.039062 21.15625 -63.34375 C 22.363281 -61.882812 22.929688 -59.960938 22.859375 -57.578125 C 22.785156 -55.191406 22.234375 -52.539062 21.203125 -49.625 C 20.171875 -46.71875 18.863281 -43.71875 17.28125 -40.625 C 15.695312 -37.539062 14.015625 -34.554688 12.234375 -31.671875 C 10.453125 -28.785156 8.742188 -26.148438 7.109375 -23.765625 C 5.484375 -21.378906 4.144531 -19.457031 3.09375 -18 C 3.039062 -18 2.925781 -17.820312 2.75 -17.46875 C 2.570312 -17.125 2.484375 -17 2.484375 -17.09375 C 2.429688 -16.644531 2.316406 -16.003906 2.140625 -15.171875 C 1.972656 -14.347656 1.8125 -13.519531 1.65625 -12.6875 C 1.507812 -11.863281 1.382812 -11.195312 1.28125 -10.6875 C 1.226562 -10.34375 1.378906 -10.09375 1.734375 -9.9375 C 2.035156 -9.789062 2.3125 -9.84375 2.5625 -10.09375 C 6.925781 -14.664062 10.96875 -16.800781 14.6875 -16.5 C 17.800781 -16.238281 20.109375 -14.726562 21.609375 -11.96875 C 23.367188 -8.757812 26.054688 -6.878906 29.671875 -6.328125 C 31.929688 -5.972656 34.300781 -6.144531 36.78125 -6.84375 C 39.269531 -7.550781 41.679688 -8.503906 44.015625 -9.703125 C 46.347656 -10.910156 48.457031 -12.164062 50.34375 -13.46875 C 52.226562 -14.78125 53.75 -15.890625 54.90625 -16.796875 C 56.0625 -17.703125 56.640625 -18.175781 56.640625 -18.21875 C 57.035156 -18.570312 57.507812 -18.734375 58.0625 -18.703125 C 58.613281 -18.679688 59.066406 -18.472656 59.421875 -18.078125 Z M 17.78125 -61.078125 C 17.320312 -61.078125 16.726562 -60.5 16 -59.34375 C 15.269531 -58.1875 14.453125 -56.640625 13.546875 -54.703125 C 12.648438 -52.773438 11.738281 -50.644531 10.8125 -48.3125 C 9.882812 -45.976562 9.015625 -43.628906 8.203125 -41.265625 C 7.398438 -38.910156 6.695312 -36.726562 6.09375 -34.71875 C 5.5 -32.707031 5.085938 -31.0625 4.859375 -29.78125 C 4.628906 -28.5 4.640625 -27.785156 4.890625 -27.640625 C 5.140625 -27.484375 5.628906 -27.894531 6.359375 -28.875 C 7.085938 -29.851562 7.941406 -31.222656 8.921875 -32.984375 C 9.898438 -34.742188 10.925781 -36.726562 12 -38.9375 C 13.082031 -41.144531 14.085938 -43.398438 15.015625 -45.703125 C 15.953125 -48.015625 16.742188 -50.210938 17.390625 -52.296875 C 18.046875 -54.390625 18.460938 -56.1875 18.640625 -57.6875 C 18.816406 -59.195312 18.628906 -60.253906 18.078125 -60.859375 C 18.023438 -60.898438 17.984375 -60.945312 17.953125 -61 C 17.929688 -61.050781 17.875 -61.078125 17.78125 -61.078125 Z M 17.78125 -61.078125 "/></g></g></g></g></g><g fill="#ffffff" fill-opacity="1"><g transform="translate(166.750157, 132.473347)"><g><path d="M 2.5 -1.078125 C 2.101562 -0.890625 1.675781 -0.769531 1.21875 -0.71875 C 0.757812 -0.675781 0.398438 -0.695312 0.140625 -0.78125 L 0.234375 -1.984375 C 0.429688 -1.910156 0.707031 -1.875 1.0625 -1.875 C 1.425781 -1.882812 1.742188 -1.957031 2.015625 -2.09375 C 2.367188 -2.25 2.613281 -2.460938 2.75 -2.734375 C 2.894531 -3.015625 2.894531 -3.300781 2.75 -3.59375 C 2.644531 -3.820312 2.492188 -3.988281 2.296875 -4.09375 C 2.109375 -4.207031 1.898438 -4.273438 1.671875 -4.296875 C 1.441406 -4.316406 1.132812 -4.335938 0.75 -4.359375 C 0.269531 -4.359375 -0.046875 -4.367188 -0.203125 -4.390625 C -1.066406 -4.515625 -1.679688 -4.960938 -2.046875 -5.734375 C -2.347656 -6.359375 -2.363281 -6.9375 -2.09375 -7.46875 C -1.832031 -8 -1.382812 -8.414062 -0.75 -8.71875 C -0.0703125 -9.039062 0.597656 -9.125 1.265625 -8.96875 L 1.171875 -7.8125 C 0.972656 -7.882812 0.738281 -7.910156 0.46875 -7.890625 C 0.195312 -7.878906 -0.0703125 -7.8125 -0.34375 -7.6875 C -0.664062 -7.53125 -0.882812 -7.332031 -1 -7.09375 C -1.113281 -6.851562 -1.101562 -6.585938 -0.96875 -6.296875 C -0.875 -6.097656 -0.726562 -5.945312 -0.53125 -5.84375 C -0.34375 -5.738281 -0.128906 -5.671875 0.109375 -5.640625 C 0.359375 -5.609375 0.675781 -5.578125 1.0625 -5.546875 C 1.445312 -5.523438 1.738281 -5.503906 1.9375 -5.484375 C 2.144531 -5.460938 2.351562 -5.414062 2.5625 -5.34375 C 2.832031 -5.269531 3.082031 -5.140625 3.3125 -4.953125 C 3.539062 -4.773438 3.722656 -4.539062 3.859375 -4.25 C 4.066406 -3.8125 4.140625 -3.382812 4.078125 -2.96875 C 4.023438 -2.5625 3.863281 -2.195312 3.59375 -1.875 C 3.320312 -1.550781 2.957031 -1.285156 2.5 -1.078125 Z M 2.5 -1.078125 "/></g></g></g><g fill="#ffffff" fill-opacity="1"><g transform="translate(177.456675, 128.02628)"><g><path d="M -0.96875 -8.0625 L 0.234375 -8.34375 L 0.96875 -5.125 L 3.734375 -5.75 L 3 -8.96875 L 4.203125 -9.25 L 6 -1.375 L 4.796875 -1.09375 L 3.96875 -4.75 L 1.203125 -4.125 L 2.03125 -0.46875 L 0.828125 -0.1875 Z M -0.96875 -8.0625 "/></g></g></g><g fill="#ffffff" fill-opacity="1"><g transform="translate(190.042029, 125.820871)"><g><path d="M 3.890625 -8.0625 L 7.71875 0.078125 L 6.296875 0.0625 L 5.609375 -1.515625 L 1.90625 -1.5625 L 1.203125 0.015625 L -0.171875 0 L 3.78125 -8.0625 Z M 3.3125 -4.625 L 2.421875 -2.65625 L 5.140625 -2.640625 L 4.296875 -4.59375 L 3.828125 -5.71875 L 3.8125 -5.71875 Z M 3.3125 -4.625 "/></g></g></g><g fill="#ffffff" fill-opacity="1"><g transform="translate(203.325567, 126.676172)"><g><path d="M 3.4375 -3.03125 L 1.75 -7.890625 L 3.1875 -7.53125 L 4.3125 -3.984375 L 6.96875 -6.609375 L 8.390625 -6.265625 L 4.640625 -2.71875 L 3.75 0.921875 L 2.546875 0.625 Z M 3.4375 -3.03125 "/></g></g></g><g fill="#ffffff" fill-opacity="1"><g transform="translate(215.113403, 130.250462)"><g><path d="M 4.265625 -6.921875 L 7.453125 -5.375 L 6.984375 -4.40625 L 4.890625 -5.421875 L 3.9375 -3.421875 L 5.625 -2.609375 L 5.140625 -1.609375 L 3.453125 -2.421875 L 2.328125 -0.09375 L 4.75 1.078125 L 4.28125 2.0625 L 0.765625 0.359375 Z M 4.265625 -6.921875 "/></g></g></g><g fill="#ffffff" fill-opacity="1"><g transform="translate(152.489943, 240.125088)"><g><path d="M 5.609375 -5.875 L 6.578125 -5.125 L 4.5625 -2.515625 L 6.8125 -0.78125 L 8.828125 -3.390625 L 9.8125 -2.625 L 4.875 3.765625 L 3.890625 3 L 6.1875 0.03125 L 3.9375 -1.703125 L 1.640625 1.265625 L 0.671875 0.515625 Z M 5.609375 -5.875 "/></g></g></g><g fill="#ffffff" fill-opacity="1"><g transform="translate(164.267801, 248.23117)"><g><path d="M 4.15625 1.921875 C 3.476562 1.617188 2.921875 1.191406 2.484375 0.640625 C 2.046875 0.0859375 1.785156 -0.550781 1.703125 -1.28125 C 1.628906 -2.007812 1.753906 -2.757812 2.078125 -3.53125 C 2.421875 -4.300781 2.878906 -4.898438 3.453125 -5.328125 C 4.035156 -5.753906 4.679688 -6 5.390625 -6.0625 C 6.097656 -6.132812 6.789062 -6.019531 7.46875 -5.71875 C 8.132812 -5.4375 8.679688 -5.015625 9.109375 -4.453125 C 9.546875 -3.890625 9.8125 -3.25 9.90625 -2.53125 C 10 -1.8125 9.875 -1.066406 9.53125 -0.296875 C 9.207031 0.472656 8.75 1.078125 8.15625 1.515625 C 7.5625 1.953125 6.910156 2.195312 6.203125 2.25 C 5.503906 2.3125 4.820312 2.203125 4.15625 1.921875 Z M 4.59375 0.90625 C 5.050781 1.101562 5.519531 1.175781 6 1.125 C 6.488281 1.070312 6.9375 0.882812 7.34375 0.5625 C 7.75 0.238281 8.078125 -0.210938 8.328125 -0.796875 C 8.585938 -1.378906 8.695312 -1.929688 8.65625 -2.453125 C 8.613281 -2.972656 8.445312 -3.425781 8.15625 -3.8125 C 7.875 -4.195312 7.5 -4.488281 7.03125 -4.6875 C 6.5625 -4.894531 6.085938 -4.972656 5.609375 -4.921875 C 5.128906 -4.867188 4.6875 -4.675781 4.28125 -4.34375 C 3.875 -4.019531 3.539062 -3.566406 3.28125 -2.984375 C 3.03125 -2.398438 2.925781 -1.847656 2.96875 -1.328125 C 3.019531 -0.804688 3.191406 -0.351562 3.484375 0.03125 C 3.773438 0.414062 4.144531 0.707031 4.59375 0.90625 Z M 4.59375 0.90625 "/></g></g></g><g fill="#ffffff" fill-opacity="1"><g transform="translate(179.689239, 253.766501)"><g><path d="M 2.21875 -7.8125 L 3.984375 -7.5 C 4.960938 -7.332031 5.644531 -7 6.03125 -6.5 C 6.425781 -6 6.5625 -5.378906 6.4375 -4.640625 C 6.289062 -3.785156 5.925781 -3.171875 5.34375 -2.796875 C 4.769531 -2.429688 3.992188 -2.332031 3.015625 -2.5 L 2.578125 -2.578125 L 2.0625 0.359375 L 0.84375 0.140625 Z M 3.234375 -3.578125 C 3.867188 -3.460938 4.332031 -3.523438 4.625 -3.765625 C 4.925781 -4.003906 5.113281 -4.328125 5.1875 -4.734375 C 5.257812 -5.148438 5.195312 -5.507812 5 -5.8125 C 4.800781 -6.125 4.410156 -6.332031 3.828125 -6.4375 L 3.265625 -6.53125 L 2.765625 -3.65625 Z M 3.234375 -3.578125 "/></g></g></g><g fill="#ffffff" fill-opacity="1"><g transform="translate(192.613268, 255.260175)"><g><path d="M 2.578125 -3.75 L 1.9375 -2.90625 L 2.0625 -0.09375 L 0.859375 -0.03125 L 0.5 -8.109375 L 1.703125 -8.171875 L 1.859375 -4.578125 L 4.484375 -8.296875 L 5.953125 -8.359375 L 3.328125 -4.6875 L 6.703125 -0.296875 L 5.203125 -0.234375 Z M 2.578125 -3.75 "/></g></g></g><g fill="#ffffff" fill-opacity="1"><g transform="translate(206.180814, 253.816964)"><g><path d="M -0.9375 -8.09375 L 0.265625 -8.390625 L 2.171875 -0.53125 L 0.96875 -0.234375 Z M -0.9375 -8.09375 "/></g></g></g><g fill="#ffffff" fill-opacity="1"><g transform="translate(216.15305, 250.892784)"><g><path d="M -0.375 -5.609375 L 0.03125 -4.828125 L 1.890625 -0.890625 L 0.78125 -0.375 L -2.671875 -7.6875 L -2.53125 -7.75 L 4.03125 -5 L 3.578125 -5.796875 L 1.71875 -9.734375 L 2.828125 -10.265625 L 6.28125 -2.96875 L 6.125 -2.890625 Z M -0.375 -5.609375 "/></g></g></g><g fill="#ffffff" fill-opacity="1"><g transform="translate(229.302824, 243.652867)"><g><path d="M 2.203125 -1.609375 C 1.859375 -1.335938 1.46875 -1.125 1.03125 -0.96875 C 0.59375 -0.820312 0.242188 -0.765625 -0.015625 -0.796875 L -0.21875 -1.984375 C -0.0078125 -1.960938 0.269531 -1.992188 0.625 -2.078125 C 0.976562 -2.160156 1.273438 -2.296875 1.515625 -2.484375 C 1.816406 -2.722656 2.003906 -2.988281 2.078125 -3.28125 C 2.160156 -3.582031 2.097656 -3.863281 1.890625 -4.125 C 1.734375 -4.320312 1.546875 -4.445312 1.328125 -4.5 C 1.117188 -4.5625 0.898438 -4.578125 0.671875 -4.546875 C 0.453125 -4.523438 0.148438 -4.476562 -0.234375 -4.40625 C -0.691406 -4.300781 -1.007812 -4.242188 -1.1875 -4.234375 C -2.039062 -4.160156 -2.726562 -4.457031 -3.25 -5.125 C -3.6875 -5.675781 -3.835938 -6.238281 -3.703125 -6.8125 C -3.566406 -7.382812 -3.222656 -7.890625 -2.671875 -8.328125 C -2.078125 -8.796875 -1.4375 -9.023438 -0.75 -9.015625 L -0.59375 -7.875 C -0.800781 -7.90625 -1.035156 -7.882812 -1.296875 -7.8125 C -1.554688 -7.738281 -1.800781 -7.613281 -2.03125 -7.4375 C -2.320312 -7.207031 -2.492188 -6.960938 -2.546875 -6.703125 C -2.609375 -6.441406 -2.539062 -6.179688 -2.34375 -5.921875 C -2.207031 -5.753906 -2.03125 -5.640625 -1.8125 -5.578125 C -1.59375 -5.515625 -1.363281 -5.492188 -1.125 -5.515625 C -0.894531 -5.546875 -0.582031 -5.585938 -0.1875 -5.640625 C 0.175781 -5.703125 0.457031 -5.742188 0.65625 -5.765625 C 0.863281 -5.796875 1.078125 -5.800781 1.296875 -5.78125 C 1.578125 -5.769531 1.851562 -5.695312 2.125 -5.5625 C 2.394531 -5.4375 2.625 -5.25 2.8125 -5 C 3.113281 -4.613281 3.28125 -4.21875 3.3125 -3.8125 C 3.351562 -3.40625 3.273438 -3.007812 3.078125 -2.625 C 2.878906 -2.25 2.585938 -1.910156 2.203125 -1.609375 Z M 2.203125 -1.609375 "/></g></g></g></svg>